<?xml version="1.0" encoding="utf-8"?>
<!-- Generator: Adobe Illustrator 16.0.4, SVG Export Plug-In . SVG Version: 6.00 Build 0)  -->
<!DOCTYPE svg PUBLIC "-//W3C//DTD SVG 1.1//EN" "http://www.w3.org/Graphics/SVG/1.1/DTD/svg11.dtd">
<svg version="1.1" id="Calque_1" xmlns="http://www.w3.org/2000/svg" xmlns:xlink="http://www.w3.org/1999/xlink" x="0px" y="0px"
	 width="2500px" height="2500px" viewBox="0 0 2500 2500" enable-background="new 0 0 2500 2500" xml:space="preserve">
<g>
	<path fill="#FFFFFF" d="M2381.207,1893.16c-0.75-67.523-16.551-134.2-41.18-196.829c-19.001-48.482-41.066-95.693-62.609-143.083
		C2105.965,1179.6,1926.043,809.899,1737.79,444.429c-26.479-51.067-52.397-102.442-80.358-152.718
		c-27.481-49.043-59.467-96.255-100.88-134.642c-66.08-62.995-154.741-100.552-245.735-106.219h-41.896
		c-93.671,4.625-185.109,43.937-252.326,109.456c-39.89,37.789-70.76,83.865-97.508,131.54
		c-27.594,49.448-53.147,100.013-79.125,150.271c-126.317,245.201-248.917,492.302-367.755,741.217
		c-70.838,148.962-141.079,298.171-208.64,448.598c-28.021,62.665-53.361,127.474-62.9,195.885
		c-17.67,115.504,7.67,236.734,69.373,335.919c53.187,86.158,133.024,155.59,226.082,195.69
		c72.746,31.4,151.812,45.394,230.916,40.874c105.661-5.608,207.542-43.571,296.939-98.974
		c99.724-61.202,185.013-142.602,264.426-227.815c73.845,79.589,152.872,155.532,244.1,215.059
		c88.103,57.964,188.562,99.938,294.219,109.919c114.755,11.987,233.655-16.457,329.966-80.339
		c85.188-56.444,151.156-137.504,189.123-232.38C2370.253,2024.546,2382.288,1959.074,2381.207,1893.16z M1288.885,1848.608
		c-28.81-33.917-54.186-70.607-79.682-107.028c-42.896-62.917-81.899-128.689-113.271-198.176
		c-25.706-57.658-46.345-118.187-54.401-181.046c-5.877-49.872-4.469-101.904,13.837-149.253
		c16.379-44.399,47.867-82.863,87.757-108.281c95.042-61.336,230.511-54.708,316.632,19.695
		c43.588,37.134,69.623,92.036,76.175,148.462c8.575,75-8.479,150.328-34.668,220.279
		C1451.816,1623.066,1373.541,1739.42,1288.885,1848.608L1288.885,1848.608z M2221.438,2007.686
		c-25.398,87.66-86.446,164.24-166.322,208.428c-70.8,39.602-155.301,53.165-235.119,39.831
		c-101.651-15.82-192.857-69.761-271.885-133.429c-58.082-46.671-110.384-100.013-160.486-154.991
		c79.105-100.052,153.625-204.728,210.55-319.154c49.679-100.207,87.431-208.776,91.014-321.451
		c2.023-71.494-11.427-144.299-44.821-207.949c-43.726-85.042-122.06-150.368-211.86-181.971
		c-83.884-29.965-177.132-32.644-262.712-8.247c-80.704,22.835-154.413,71.338-204.92,138.573
		c-44.458,58.62-69.799,130.691-75.676,203.788c-9.038,105.273,17.344,210.297,57.252,307.072
		c59.333,141.406,146.416,269.402,242.594,388.125c-43.367,50.087-90.429,96.853-140.789,139.903
		c-78.083,66.08-167.421,123.602-268.629,145.491c-81.823,18.364-170.099,9.23-245.138-28.731
		c-87.893-43.803-155.377-126.3-180.834-221.128c-19.463-69.661-15.145-144.875,7.997-213.111
		c19.252-56.463,45.364-110.265,69.798-164.589c169.617-369.62,347.522-735.384,533.578-1097.009
		c27.749-53.821,55.075-107.894,84.443-160.83c23.972-42.646,51.855-84.52,91.263-114.466
		c42.612-33.196,95.322-50.765,149.326-49.775c55.498-0.656,110.669,19.791,153.121,55.459
		c41.934,34.823,70.262,82.459,95.699,129.941c57.503,108.011,112.731,217.274,167.979,326.421
		c157.677,312.078,309.185,627.238,454.433,945.293c21.95,49.409,45.441,98.434,60.22,150.578
		C2239.569,1874.063,2240.168,1943.514,2221.438,2007.686L2221.438,2007.686z"/>
</g>
</svg>
